<svg width="48" height="48" viewBox="0 0 48 48" fill="none" xmlns="http://www.w3.org/2000/svg">
<path d="M43.98 14.3202C43.796 18.3742 40.94 23.9202 35.42 30.9662C29.714 38.3222 24.88 42.0002 20.924 42.0002C18.474 42.0002 16.404 39.7562 14.712 35.2822C13.584 31.1722 12.458 27.0622 11.318 22.9622C10.064 18.4882 8.718 16.2442 7.268 16.2442C6.958 16.2442 5.854 16.9042 3.978 18.2042L2 15.6742C4.07 13.8622 6.12 12.0642 8.132 10.2542C10.892 7.88422 12.976 6.64422 14.356 6.51822C17.622 6.21222 19.636 8.42022 20.396 13.1682C21.212 18.2802 21.776 21.4682 22.098 22.7082C23.042 26.9562 24.078 29.0742 25.204 29.0742C26.078 29.0742 27.402 27.6982 29.162 24.9422C30.922 22.1862 31.864 20.0922 31.992 18.6562C32.244 16.2762 31.302 15.0922 29.162 15.0922C28.162 15.0922 27.126 15.3202 26.056 15.7762C28.116 9.07022 32.06 5.81222 37.882 6.00622C42.196 6.12022 44.232 8.89822 43.98 14.3182V14.3202Z" fill="#C4C4C4"/>
</svg>
