<svg width="48" height="48" viewBox="0 0 48 48" fill="none" xmlns="http://www.w3.org/2000/svg">
<g clip-path="url(#clip0_2579_961)">
<path d="M46.9998 13.0142C46.728 12.0446 46.1986 11.1668 45.4678 10.4742C44.7163 9.76016 43.7954 9.24942 42.7918 8.99015C39.0358 8.00015 23.9878 8.00015 23.9878 8.00015C17.7144 7.92878 11.4426 8.2427 5.20777 8.94015C4.20415 9.21858 3.2849 9.74073 2.53177 10.4602C1.79177 11.1722 1.25577 12.0502 0.97577 13.0122C0.303155 16.6356 -0.0236464 20.3148 -0.000230477 24.0002C-0.0242305 27.6822 0.301769 31.3602 0.97577 34.9882C1.24977 35.9462 1.78377 36.8202 2.52577 37.5262C3.26777 38.2322 4.19177 38.7422 5.20777 39.0122C9.01377 40.0002 23.9878 40.0002 23.9878 40.0002C30.2691 40.0716 36.5489 39.7577 42.7918 39.0602C43.7954 38.8009 44.7163 38.2901 45.4678 37.5762C46.2078 36.8702 46.7338 35.9922 46.9978 35.0362C47.6879 31.4141 48.0235 27.7333 47.9998 24.0462C48.0517 20.3434 47.7165 16.6453 46.9998 13.0122V13.0142ZM19.2038 30.8482V17.1542L31.7238 24.0022L19.2038 30.8482Z" fill="#C4C4C4"/>
</g>
<defs>
<clipPath id="clip0_2579_961">
<rect width="48" height="48" fill="white"/>
</clipPath>
</defs>
</svg>
